# xmcd
#
# Track frame offsets: 
#        150
#        16321
#        30278
#        51496
#        62363
#        85825
#        100548
#        119069
#        140347
#        153180
#
# Disc length: 2249 seconds
#
# Revision: 0
# Processed by: cddbd v1.5.2PL0 Copyright (c) Steve Scherf et al.
# Submitted via: ExactAudioCopy v1.0b3
#
DISCID=7308c70a
DTITLE=Blues and Fries - Blues and Fries
DYEAR=1900
DGENRE=Blues
TTITLE0=Lobster Woman
TTITLE1=Satisfy Susie
TTITLE2=People, People, People
TTITLE3=Help Me Make My Bail
TTITLE4=Little Red Rooster
TTITLE5=Through With You Baby
TTITLE6=Cook Me
TTITLE7=What's it Gonna Take
TTITLE8=Moon Don't Shine (Live)
TTITLE9=Don't Let Life Pass You By
EXTD=
EXTT0=
EXTT1=
EXTT2=
EXTT3=
EXTT4=
EXTT5=
EXTT6=
EXTT7=
EXTT8=
EXTT9=
PLAYORDER=
